HIERARCHY
ROOT Hips
{
	OFFSET -0.001795 -0.223333 0.028219
	CHANNELS 6 Xposition Yposition Zposition Zrotation Yrotation Xrotation 
	JOINT LeftUpLeg
	{
		OFFSET 0.069520 -0.091406 -0.006815
		CHANNELS 3 Zrotation Yrotation Xrotation
		JOINT LeftLeg
		{
			OFFSET 0.034277 -0.375199 -0.004496
			CHANNELS 3 Zrotation Yrotation Xrotation
			JOINT LeftFoot
			{
				OFFSET -0.013596 -0.397961 -0.043693
				CHANNELS 3 Zrotation Yrotation Xrotation
				JOINT LeftToe
				{
					OFFSET 0.026358 -0.055791 0.119288
					CHANNELS 3 Zrotation Yrotation Xrotation
					End Site
					{
						OFFSET 0.000000 0.000000 0.000000
					}
				}
			}
		}
	}
	JOINT RightUpLeg
	{
		OFFSET -0.067670 -0.090522 -0.004320
		CHANNELS 3 Zrotation Yrotation Xrotation
		JOINT RightLeg
		{
			OFFSET -0.038290 -0.382569 -0.008850
			CHANNELS 3 Zrotation Yrotation Xrotation
			JOINT RightFoot
			{
				OFFSET 0.015774 -0.398415 -0.042312
				CHANNELS 3 Zrotation Yrotation Xrotation
				JOINT RightToe
				{
					OFFSET -0.025372 -0.048144 0.123348
					CHANNELS 3 Zrotation Yrotation Xrotation
					End Site
					{
						OFFSET 0.000000 0.000000 0.000000
					}
				}
			}
		}
	}
	JOINT Spine
	{
		OFFSET -0.002533 0.108963 -0.026696
		CHANNELS 3 Zrotation Yrotation Xrotation
		JOINT Spine1
		{
			OFFSET 0.005487 0.135180 0.001092
			CHANNELS 3 Zrotation Yrotation Xrotation
			JOINT Spine2
			{
				OFFSET 0.001457 0.052922 0.025425
				CHANNELS 3 Zrotation Yrotation Xrotation
				JOINT Neck
				{
					OFFSET -0.002778 0.213870 -0.042857
					CHANNELS 3 Zrotation Yrotation Xrotation
					JOINT Head
					{
						OFFSET 0.005152 0.064970 0.051349
						CHANNELS 3 Zrotation Yrotation Xrotation
						End Site
						{
							OFFSET 0.000000 0.000000 0.000000
						}
					}
				}
				JOINT LeftShoulder
				{
					OFFSET 0.078845 0.121749 -0.034090
					CHANNELS 3 Zrotation Yrotation Xrotation
					JOINT LeftArm
					{
						OFFSET 0.090977 0.030469 -0.008868
						CHANNELS 3 Zrotation Yrotation Xrotation
						JOINT LeftForeArm
						{
							OFFSET 0.259612 -0.012772 -0.027456
							CHANNELS 3 Zrotation Yrotation Xrotation
							JOINT LeftHand
							{
								OFFSET 0.249234 0.008986 -0.001171
								CHANNELS 3 Zrotation Yrotation Xrotation
								End Site
								{
									OFFSET 0.000000 0.000000 0.000000
								}
							}
						}
					}
				}
				JOINT RightShoulder
				{
					OFFSET -0.081759 0.118833 -0.038615
					CHANNELS 3 Zrotation Yrotation Xrotation
					JOINT RightArm
					{
						OFFSET -0.096012 0.032551 -0.009143
						CHANNELS 3 Zrotation Yrotation Xrotation
						JOINT RightForeArm
						{
							OFFSET -0.253742 -0.013329 -0.021401
							CHANNELS 3 Zrotation Yrotation Xrotation
							JOINT RightHand
							{
								OFFSET -0.255298 0.007772 -0.005559
								CHANNELS 3 Zrotation Yrotation Xrotation
								End Site
								{
									OFFSET 0.000000 0.000000 0.000000
								}
							}
						}
					}
				}
			}
		}
	}
}
MOTION
Frames: 5
Frame Time: 0.050000
0.004224 0.943618 -0.025258 0.735658 -3.709084 11.265204 4.878598 -0.865913 -16.106531 -0.480256 -0.173951 9.696920 2.316205 6.853656 7.090202 0.000000 0.000000 0.000000 -4.704882 1.486459 -19.112820 -1.707136 0.866756 11.678897 0.052018 -3.106341 6.279905 0.000000 0.000000 0.000000 4.539320 -0.139753 -0.890953 0.817125 -0.177797 -7.486864 -10.169090 7.371110 6.551098 10.331895 -3.050878 -23.044307 0.000000 0.000000 0.000000 14.096827 -10.998468 4.249558 -6.379889 -41.523599 -1.533265 104.962416 -35.668331 -45.512166 0.000000 0.000000 0.000000 -15.955502 1.349974 0.454060 14.047106 23.820658 0.529615 -114.043588 53.218864 -64.024097 0.000000 0.000000 0.000000 
0.003465 0.943605 -0.026074 0.923815 -2.266886 11.258237 4.896802 -0.910645 -16.279055 -0.522663 -0.179133 9.280076 1.946227 6.371645 7.368804 0.000000 0.000000 0.000000 -4.580939 1.427832 -18.756890 -2.126685 0.891227 11.073851 -0.179823 -3.611611 6.576515 0.000000 0.000000 0.000000 4.224409 -0.099755 -1.283289 0.775278 -0.141819 -7.352700 -10.327677 7.723899 5.948231 10.298106 -2.975054 -22.501511 0.000000 0.000000 0.000000 13.825227 -12.215061 4.629345 -8.475294 -42.404993 -1.086425 106.632621 -34.842423 -46.416393 0.000000 0.000000 0.000000 -13.950221 2.754779 0.639978 15.151795 24.131574 0.733138 -114.797754 54.583614 -65.660308 0.000000 0.000000 0.000000 
0.003140 0.943350 -0.025785 1.153064 -0.992313 11.213731 4.631907 -0.970589 -16.186541 -0.533186 -0.181651 8.719026 1.455694 5.588205 7.355808 0.000000 0.000000 0.000000 -4.544689 1.366126 -18.379941 -2.164589 0.880976 11.056513 -0.463275 -3.939875 6.135888 0.000000 0.000000 0.000000 4.137081 -0.059667 -1.795981 0.715348 -0.113090 -6.891531 -10.680477 8.152478 5.475374 10.780133 -3.184863 -22.008536 0.000000 0.000000 0.000000 13.392405 -12.351229 4.776412 -9.892784 -43.121968 -0.814794 108.826958 -36.079429 -50.230148 0.000000 0.000000 0.000000 -12.697318 3.205911 0.660086 15.683185 25.212950 0.982119 -116.421270 55.776317 -68.023467 0.000000 0.000000 0.000000 
0.002667 0.943743 -0.025045 1.442021 -0.111245 11.237674 4.675798 -0.966336 -15.692453 -1.063819 -0.073882 7.778756 1.264548 5.316661 7.361701 0.000000 0.000000 0.000000 -4.733189 1.268231 -17.533548 -2.167378 0.831360 10.416808 -0.397084 -3.685429 6.070329 0.000000 0.000000 0.000000 3.964610 -0.012034 -2.391215 0.520877 -0.026462 -6.796404 -10.940529 8.895170 5.040706 11.285875 -3.416210 -21.516364 0.000000 0.000000 0.000000 14.078611 -13.131055 5.104808 -10.260921 -42.510219 -0.859382 110.926937 -37.905689 -55.050978 0.000000 0.000000 0.000000 -11.905666 3.628931 0.683589 15.555741 25.043914 0.995788 -117.787045 57.667661 -71.036562 0.000000 0.000000 0.000000 
0.001917 0.943554 -0.024166 1.175551 0.837161 11.203104 4.981497 -0.938828 -15.265656 -0.907503 -0.106381 7.578704 1.155874 5.049278 6.910872 0.000000 0.000000 0.000000 -4.453075 1.250168 -17.176585 -1.984394 0.786297 10.445575 -0.680423 -4.148514 5.844177 0.000000 0.000000 0.000000 4.059359 0.038328 -3.129002 0.671153 -0.077549 -6.627077 -11.069550 9.483257 4.915409 11.776144 -3.545818 -21.635953 0.000000 0.000000 0.000000 14.911141 -12.621043 5.192543 -9.580304 -41.405567 -1.178028 113.341520 -40.310198 -61.026952 0.000000 0.000000 0.000000 -11.676303 3.944013 0.673860 14.723874 24.366987 0.834052 -118.143301 58.677474 -72.008045 0.000000 0.000000 0.000000 
